Coordinates
version=1
nRows=7
nColumns=40
inDegrees=yes

Units are S.I. units (second, meters, Newtons, ...)
Angles are in degrees.

endheader
time	pelvis_tilt	pelvis_list	pelvis_rotation	pelvis_tx	pelvis_ty	pelvis_tz	hip_flexion_r	hip_adduction_r	hip_rotation_r	knee_angle_r	knee_angle_r_beta	ankle_angle_r	subtalar_angle_r	mtp_angle_r	hip_flexion_l	hip_adduction_l	hip_rotation_l	knee_angle_l	knee_angle_l_beta	ankle_angle_l	subtalar_angle_l	mtp_angle_l	lumbar_extension	lumbar_bending	lumbar_rotation	arm_flex_r	arm_add_r	arm_rot_r	elbow_flex_r	pro_sup_r	wrist_flex_r	wrist_dev_r	arm_flex_l	arm_add_l	arm_rot_l	elbow_flex_l	pro_sup_l	wrist_flex_l	wrist_dev_l
     32.10750000	     -3.01398369	     -5.13448265	     -3.17568330	      0.97077845	      0.92097554	      0.49590561	     21.85602152	      1.92816484	    -14.12439605	     21.78991805	     21.78991805	      5.63369562	     -3.43849649	     -3.92395464	      3.69697959	    -11.60243680	     -6.64458778	     40.81572915	     40.81572915	     11.34842194	    -15.88637545	     -8.61175567	    -11.99731361	      5.24749922	      1.84877615	    -12.64456685	    -14.29740199	    -17.20262777	     28.84220943	     46.54181626	      0.00000000	      0.00000000	      3.70085294	    -13.69991693	    -10.70576738	     96.62187339	     47.80431980	      0.00000000	      0.00000000
     32.11914286	     -3.19533246	     -5.37580973	     -2.95386765	      0.97064070	      0.92203924	      0.49838948	     21.06956723	      2.32222745	    -14.60254829	     21.10925086	     21.10925086	      6.09013183	     -2.83036454	     -4.15193008	      6.18707152	    -12.27890283	     -5.58090512	     45.17151340	     45.17151340	      9.37964052	    -17.19005524	     -7.84159453	    -11.90724294	      5.55408000	      1.97978089	    -11.48878828	    -13.99163423	    -16.84580311	     29.27961762	     46.50416969	      0.00000000	      0.00000000	      2.74594792	    -13.34512956	    -10.28900150	     95.32043270	     47.75639494	      0.00000000	      0.00000000
     32.13078571	     -3.29198933	     -5.49152578	     -2.73693814	      0.97033956	      0.92303543	      0.50053152	     20.28145600	      2.52564183	    -15.13748363	     20.55698801	     20.55698801	      6.32579532	     -2.14152243	     -5.01685405	      8.89945342	    -12.61217949	     -4.32150500	     49.90058378	     49.90058378	      9.87270188	    -17.30574334	     -0.86655721	    -11.91884220	      5.73440812	      2.25293556	    -10.51087932	    -14.01183474	    -14.26862395	     30.18662656	     46.27972857	      0.00000000	      0.00000000	      2.20251043	    -12.97326527	     -9.59180768	     93.12434645	     47.74643245	      0.00000000	      0.00000000
     32.14242857	     -3.35830654	     -5.68890417	     -2.50508522	      0.96997120	      0.92379773	      0.50265475	     19.51605717	      2.84054235	    -15.54472428	     20.09473815	     20.09473815	      6.69814478	     -1.62506722	     -5.33890861	     11.45062030	    -13.08545667	     -3.30741049	     53.97468818	     53.97468818	      9.15774272	    -17.70020831	      2.42324227	    -11.97618842	      5.97738031	      2.34464757	     -9.29832603	    -13.93178323	    -13.01424314	     31.25401534	     46.15571083	      0.00000000	      0.00000000	      1.32245186	    -12.58118793	     -9.37511049	     91.37363021	     47.74192713	      0.00000000	      0.00000000
     32.15407143	     -3.36996880	     -5.97715633	     -2.24527968	      0.96954497	      0.92439219	      0.50471250	     18.74493570	      3.27535939	    -15.82251732	     19.70590841	     19.70590841	      7.09243571	     -1.42602982	     -5.43591701	     13.85389088	    -13.69812325	     -2.46311083	     57.48557451	     57.48557451	      7.82009977	    -18.13383240	      3.02039621	    -12.14616887	      6.27734648	      2.58166815	     -7.90414984	    -13.75136205	    -12.78383326	     31.93375418	     46.12241506	      0.00000000	      0.00000000	      0.34423558	    -12.15986227	     -8.91323222	     90.41281442	     47.69522004	      0.00000000	      0.00000000
     32.16571429	     -3.41920183	     -6.12464028	     -1.98235002	      0.96895556	      0.92483134	      0.50648419	     18.07480929	      3.52068302	    -16.11832192	     19.39021193	     19.39021193	      7.41715439	     -1.13771002	     -5.75210561	     16.49638888	    -13.93423748	     -1.44253679	     60.97932501	     60.97932501	      8.77096262	    -17.97108442	      8.89530542	    -12.21271951	      6.45138465	      2.71437369	     -6.78186885	    -13.96457017	    -10.37604681	     33.54427791	     45.91261200	      0.00000000	      0.00000000	     -0.41906324	    -11.87927631	     -8.42247714	     88.20225943	     47.68699825	      0.00000000	      0.00000000
     32.17735714	     -3.42965371	     -6.37035166	     -1.69173558	      0.96838327	      0.92512580	      0.50824831	     17.39752336	      3.87926359	    -16.37757494	     19.13110071	     19.13110071	      7.80107551	     -0.99580615	     -5.83246574	     18.85540392	    -14.39126701	     -0.70626942	     63.58246443	     63.58246443	      8.00979908	    -18.22572656	      9.04055210	    -12.36292817	      6.70708028	      2.85179303	     -5.21238958	    -13.86235199	    -10.15133573	     34.33109781	     45.87906943	      0.00000000	      0.00000000	     -1.46438275	    -11.55796466	     -8.08654333	     86.86092353	     47.63908491	      0.00000000	      0.00000000
